
<svg fill="none" viewBox="0 0 179 70" xmlns="http://www.w3.org/2000/svg"><style>@keyframes landing{0%{transform:translateX(70px) translateY(100px)}75%{transform:translateX(-2px) translateY(-5px)}to{transform:rotate(0deg)}}@keyframes hideshow{0%,to{opacity:1}50%{opacity:0}}.rocket-flames .rocket-lines:nth-child(1){animation:hideshow 1.2s ease infinite}.rocket-flames .rocket-lines:nth-child(2){animation:hideshow 1.7s ease infinite}.rocket-flames .rocket-lines:nth-child(3){animation:hideshow 1.5s ease infinite}</style><path d="M35.592 8.615L26.604 31.23l9.707 22.256H22.29l-6.471-17.23H12.94v17.23H-.002V8.614h12.943v16.872h3.236L21.93 8.614h13.662z" fill="url(#b)"/><path d="M52.131 20.462v33.026H39.907V20.462h12.224z" fill="#FFBA53"/><path d="M57.164 33.744c0-9.333 5.033-14 13.302-14 2.157 0 4.674.359 6.831 1.077V5.744h11.864v47.744H78.375l-.36-2.872c-2.516 1.795-6.111 3.59-10.066 3.59-6.472 0-10.786-4.667-10.786-11.846v-8.615zm20.133 8.974V29.795c-1.079-.359-2.517-.718-3.595-.718-3.596 0-3.955 2.872-3.955 5.744v4.308c0 2.872.719 5.025 3.595 5.025 1.438 0 2.876-.718 3.955-1.436z" fill="url(#a)"/><g style="animation:landing 1s ease-in-out"><path d="M96.71 35.18c-.719.359-1.079.718-1.079 1.436l-2.516 13.64c-.36 1.437 0 2.873 1.078 3.95l7.19 7.897c.72.718 1.798 1.077 2.877 1.077 1.078 0 1.797-.718 2.516-1.795l4.674-10.41v-.359c0-.718 0-1.077-.359-1.436L98.868 36.257c-1.08-1.077-1.439-1.436-2.158-1.077zM117.56 22.975c-.359.359-.719 1.077-.359 1.795l5.392 16.872c.36.718.72 1.077 1.439 1.077l11.145 1.077c1.078 0 2.157-.36 2.876-1.077.36-.36.36-.718.719-1.077v-1.795l-3.236-10.05a3.898 3.898 0 00-2.876-2.873l-13.302-4.666c-.719 0-1.438.359-1.798.718z" fill="#EF4A67"/><path d="M125.83 46.308c.719-.359 1.438-1.436 1.438-2.154 1.438-14-7.19-27.64-14.021-33.744C106.056 3.59 96.708 1.077 92.394 0c-1.438-.359-2.876.718-3.595 2.154-1.438 4.308-3.596 13.282-1.438 23.333 2.157 8.974 9.707 22.615 22.65 28.359.719.359 1.798.359 2.876 0l12.943-7.538z" fill="#EBEDFF"/><path d="M111.09 23.693c-.719 2.154-1.797 3.949-3.954 5.026-1.798 1.077-4.315 1.436-6.472.718s-3.954-1.795-5.033-3.95c-2.517-3.948-1.079-9.332 2.876-11.486 1.798-1.077 4.314-1.436 6.472-.718 2.157.718 3.954 1.795 5.033 3.949 1.438 2.154 1.438 4.307 1.078 6.461zM110.37 53.846c.719.359 1.797.359 2.876 0l12.943-7.538c.719-.36 1.438-1.436 1.438-2.154.36-2.872 0-6.103-.36-8.975L102.82 49.54c2.157 1.435 4.674 3.23 7.55 4.307z" fill="#5B6DF7"/><g class="rocket-flames" fill="#FFBA53"><path class="rocket-lines" d="M121.88 66.052v-1.436l-3.954-6.82c-.36-.718-1.439-1.077-2.158-.718-.719.359-1.078 1.435-.719 2.153l3.955 6.821c.36.718 1.438 1.077 2.157.718.36 0 .719-.359.719-.718zM121.52 53.488c-.719.359-1.078 1.436-.719 2.154l7.55 12.923c.36.718 1.438 1.077 2.157.718.36-.36.719-.718.719-1.077V66.77l-7.55-12.923c-.359-.359-1.438-.718-2.157-.359zM127.63 49.898c-.719.359-1.078 1.436-.719 2.154l3.955 6.82c.359.718 1.438 1.077 2.157.718.36-.359.719-.718.719-1.077v-1.435l-3.955-6.821c0-.359-1.078-.718-2.157-.359z"/></g></g><path d="M144.89 5.744v47.744h-12.224V5.744h12.224z" fill="#F37CA7"/><path d="M162.14 34.462h5.033v-1.436c0-2.154-1.078-3.59-5.033-3.59s-7.91 1.077-9.707 1.795l-1.798-9.333c2.157-.718 7.55-2.154 13.303-2.154 10.426 0 14.74 3.23 14.74 13.282v20.462h-8.988l-1.079-2.513c-2.516 1.795-5.392 3.231-8.988 3.231-6.112 0-10.066-2.872-10.066-10.051s6.471-9.692 12.583-9.692zm5.033 10.769v-4.667h-3.595c-1.798 0-2.876 1.077-2.876 2.872s1.078 2.872 2.876 2.872c1.438 0 2.517-.359 3.595-1.077z" fill="#5B6DF7"/><path d="M12.942 36.256v17.231H-.001V8.615h12.943v16.872" fill="#EF4A68"/><path d="M47.711 16.976c3.436-.984 5.467-4.407 4.537-7.647-.93-3.24-4.47-5.07-7.906-4.086s-5.467 4.407-4.536 7.647c.93 3.24 4.47 5.07 7.905 4.086z" fill="#5B6DF7"/><defs><radialGradient id="a" cx="0" cy="0" r="1" gradientTransform="rotate(96.989 34.147 51.483) scale(17.534 15.062)" gradientUnits="userSpaceOnUse"><stop stop-color="#1630C4" offset="0"/><stop stop-color="#5B6DF7" offset="1"/></radialGradient><linearGradient id="b" x1="11.674" x2="19.662" y1="31.016" y2="31.016" gradientUnits="userSpaceOnUse"><stop stop-color="#1630C4" offset="0"/><stop stop-color="#5B6DF7" offset="1"/></linearGradient></defs></svg>